<svg width="378" height="479" fill="none" xmlns="http://www.w3.org/2000/svg"><path d="M46.94 308.72v-.12c.06-.28.12-.57.17-.86a.36.36 0 0 0-.06-.25.334.334 0 0 0-.23-.14l-.41-.06a6.41 6.41 0 0 0-5.91-3.86.334.334 0 0 0-.29.16.41.41 0 0 0 0 .4c1.76 2.48 1.65 5.1 1.55 7.64v1.68s0 .07-.05.11c-.05.04-.45.27-1.55.28a.138.138 0 0 0 0-.07.298.298 0 0 0-.07-.29.259.259 0 0 0-.26-.07l-1 .25-.46.12c-.77 0-1.51 0-2.25-.12a.247.247 0 0 0-.243.136.245.245 0 0 0-.027.094.24.24 0 0 0 .18.27l.51.09-4.44 1.21-2.11.58-.1-.1a.181.181 0 0 0-.25 0 .199.199 0 0 0-.07.24h-.14l-1.12.3h-.1c.05-.15.11-.29.16-.43l.07-.17a.19.19 0 0 0-.11-.24.19.19 0 0 0-.142.007.187.187 0 0 0-.098.103l-.06.13-.28.67c-.16 0-.21-.13-.39-.63l-.54-1.45c-.17-.46-.34-.92-.5-1.38a30.824 30.824 0 0 1-1.74-6.21.382.382 0 0 0-.36-.35.402.402 0 0 0-.42.33c-1 5.11.2 10.94 3 14.52l.31.35c.303.728.745 1.39 1.3 1.95a.36.36 0 0 0 .49 0 7.55 7.55 0 0 0 .58-.56c2.06.34 4-1.33 5.15-3.11 0 .32.08.66.13 1v1.67c-.066.1-.126.203-.18.31a3.222 3.222 0 0 0-.3 1.54v.44a.234.234 0 0 0 .045.172.25.25 0 0 0 .069.06.238.238 0 0 0 .086.028.281.281 0 0 0 .29-.22v-.14c.025-.218.062-.435.11-.65a15.83 15.83 0 0 0 7.75 12 .27.27 0 0 0 .17.06.43.43 0 0 0 .16 0l.07-.05v-.2c-.08-.63-.13-1.29-.17-1.85h.13a.353.353 0 0 0 .273-.076.347.347 0 0 0 .127-.254c0-.12 0-.29.06-.49.05-.51.13-1.28.26-1.95.21-.46.43-.91.64-1.33a.788.788 0 0 0 .08-.27.36.36 0 0 0 .26-.36v-.05a.35.35 0 0 0-.34-.35.447.447 0 0 0-.32.13l.15-.55a.38.38 0 0 0-.25-.48h-.13c.77-3.29.22-7-.38-10.26a.44.44 0 0 0-.05-.3.39.39 0 0 0-.25-.16l-.45-.11a2.4 2.4 0 0 0-.4-.78c0-.05-.07-.1-.1-.16h1.63c.85-.038 1.702-.022 2.55.05a.391.391 0 0 0 .37-.3 15.35 15.35 0 0 0 .22-7.27Zm-20 10.53a6.6 6.6 0 0 0 0 .76l-.19-.3c-.11-.17-.21-.35-.31-.53.165.034.332.057.5.07Zm15.11 2.95v1.1l-.49-.08c.319-.418.5-.925.52-1.45-.03.2-.03.34-.03.43Zm-1.18.92-.8-.11h-.18c.14-.38.3-.8.49-1.23.064.477.23.934.49 1.34Zm1.19-2.65a.202.202 0 0 0-.22.16 8.873 8.873 0 0 1-.39 1.63 1.006 1.006 0 0 1-.11.26 5.001 5.001 0 0 1-.19-1.07.902.902 0 0 0 0-.18v-.14c0-.15-.05-.34-.07-.53.272-.403.584-.778.93-1.12h.34c-.153.318-.25.659-.29 1.01v-.02Zm.9-1.53H42.55l.36-.36c0 .14.05.28.07.42l-.02-.06Zm-.72-.71c-.18.19-.35.39-.52.58a1.358 1.358 0 0 0-1.42.75 3.583 3.583 0 0 0-.06 1.11 11.59 11.59 0 0 0-1.26 2.48.44.44 0 0 0 0 .37.363.363 0 0 0 .26.17c.84.12 1.68.22 2.49.32l.53.06a.3.3 0 0 0 .22-.06.47.47 0 0 0 .14-.29v-.78c0-.9-.11-3.3.35-3.37h.08c.436 2.537.5 5.124.19 7.68a8.767 8.767 0 0 1-.53 2.24.425.425 0 0 0-.29-.22.394.394 0 0 0-.21 0 5.042 5.042 0 0 0-.27-.52.41.41 0 0 0-.43-.19.331.331 0 0 0-.26.32v.69l-.15-.24a.33.33 0 0 0-.37-.14.372.372 0 0 0-.28.32c-.029.496-.029.994 0 1.49-1.45-.38-2.47-2.61-2.92-3.58a19.293 19.293 0 0 1-1.16-3.35.634.634 0 0 0 .36.19c1 .19 1.5-1.77 1.9-3.69 0-.16.06-.28.08-.35a.35.35 0 0 0-.13-.37.347.347 0 0 0-.39 0c-.701.403-1.37.862-2 1.37a5.709 5.709 0 0 1-.48-1.63c.07.144.154.282.25.41.036.037.083.06.135.065a.22.22 0 0 0 .225-.305 4.457 4.457 0 0 1-.49-1.51v-.19c.06-.15.11-.29.16-.44a.26.26 0 0 0-.13-.33.277.277 0 0 0-.11-.022.277.277 0 0 0-.11.022 2.822 2.822 0 0 0-.35-.73.189.189 0 0 0-.2-.09.24.24 0 0 0-.21.15.23.23 0 0 0 0 .24l.12.2h-.07a.42.42 0 0 0-.35.43c0 .37.05.75.09 1.12l-.31.51c-.35.36-.67.67-1 1 .16-1.24.36-2.8.59-4.36v-.08c1.2-.38 2.76-.86 4.37-1.33.638.06 1.28.08 1.92.06a.372.372 0 0 0 0 .12c0 .08.07.15.1.22v.06a.998.998 0 0 0-.22.27 1.794 1.794 0 0 0-.21 1.39.998.998 0 0 0 .57.67l.23.11c.44.21.89.43 1.35.61a.457.457 0 0 0 .34.24l-.16.13Zm-.89 16.26-.19-.16c.04-.045.068-.1.08-.16 0-.17.07-.34.11-.5.01.2.01.4 0 .6a.33.33 0 0 0 0 .22Zm-5.14-8c.24.64.5 1.24.78 1.82 1 2 2.11 3.14 3.38 3.44 0 .5.05 1 .09 1.48v.47a17.828 17.828 0 0 1-1.84-2.12 15.81 15.81 0 0 1-2.41-5.09Zm-.06-4.38a9.403 9.403 0 0 1 1.57-1.22 18.468 18.468 0 0 1-.68 2.07v.1c-.05.154-.125.299-.22.43v-.07a5.8 5.8 0 0 1-.24-.57 5.01 5.01 0 0 0-.43-.73v-.01Zm5 9.71c-.03.072-.058.145-.08.22v-.21l.08-.01Zm-.11-1c0 .06 0 .11.07.16h-.07v-.16Zm.63 3.72a.359.359 0 0 0 .21-.27c.036.076.076.149.12.22a.383.383 0 0 0 .09.09c.05.25.1.43.14.57-.27-.18-.54-.37-.81-.58a.362.362 0 0 0 .29 0l-.04-.03Zm-.78-18-.42-.2v-.06a2.65 2.65 0 0 1 .1-.84c.142.259.3.509.47.75.08.11.18.23.28.35.1.12.17.21.25.31l-.68-.31Zm-13.5 2.73a5.064 5.064 0 0 0 1.25-.23.26.26 0 0 0 .18-.31.238.238 0 0 0-.104-.146.238.238 0 0 0-.176-.034 7.101 7.101 0 0 1-1.05.09c.084-.399.19-.793.32-1.18.79-.2 1.58-.43 2.34-.65l.17-.05c.235.18.441.396.61.64.43.711.57 1.559.39 2.37-.091.272-.168.55-.23.83-.513.424-.997.882-1.45 1.37l-.25.25-.07.07a4.567 4.567 0 0 1-1.82-1.41 4.25 4.25 0 0 1-.07-1.62l-.04.01Zm5.51-2.94c-.34.65-.69 1.32-1 2a3.474 3.474 0 0 0-.33-1 2.123 2.123 0 0 0-.7-.76l2.25-.7-.22.46Zm-2.64 5.9c.22-.26.44-.52.67-.77a.31.31 0 0 0 .26.29.294.294 0 0 0 .228-.04.292.292 0 0 0 .132-.19c.13-.46.23-.87.3-1.25.31-.976.697-1.926 1.16-2.84-.16 1.22-.32 2.34-.48 3.4a.382.382 0 0 0 .17.37 4.715 4.715 0 0 1-1.73 1.12 2.123 2.123 0 0 1-.9.13l.19-.22Zm-2.94-4.66c-.117.328-.217.662-.3 1a1.998 1.998 0 0 1-1.26-.6c-.21-.48-.39-.92-.53-1.33a7.562 7.562 0 0 1 .42-2.86c.12.37.25.73.38 1.09.27.76.55 1.55.81 2.32a.505.505 0 0 0 .47.34l.01.04Zm14.61-2.08h.11-.11Zm1.85-3.11a.279.279 0 0 0-.15.36c.06.11.113.224.16.34.402.725.68 1.513.82 2.33a9.605 9.605 0 0 1-3.36-1.05c.34 0 .673-.04 1-.12a.34.34 0 0 0 .26-.33v-3.18c.25.503.617.938 1.07 1.27.89.51 1.92.723 2.94.61v.73a18.985 18.985 0 0 1-.36 2.05c-.06.24-.16.24-.52.2a3.405 3.405 0 0 0-.35 0h-.07a7.463 7.463 0 0 0-1-2.72c-.06-.12-.13-.24-.18-.35a.23.23 0 0 0-.26-.18v.04Zm-.37-6.11a.257.257 0 0 0-.293-.061.259.259 0 0 0-.087.061.29.29 0 0 0 0 .41 4.777 4.777 0 0 0 3 1.29c.12.3.2.53.27.75.005.08.005.16 0 .24a7.218 7.218 0 0 0-1.56.11 5.431 5.431 0 0 1-1.89.05.328.328 0 0 0-.22.05 11.098 11.098 0 0 0-.59-3.48 6.72 6.72 0 0 0-.68-1.34c.58.12 2.11.52 2.23.59a5 5 0 0 1 2.12 2.25 3.68 3.68 0 0 1-2.3-.96v.04Zm-.25 4.06a.74.74 0 0 1-.08-.56c.45 0 .91-.1 1.34-.17a8.83 8.83 0 0 1 2-.16c.154.814.224 1.642.21 2.47-.29-.06-.58-.08-.86-.11a3.872 3.872 0 0 1-1.54-.33 3 3 0 0 1-1.07-1.18v.04ZM25.39 313c-.25.651-.45 1.319-.6 2a19.602 19.602 0 0 1-.49-5.7c.31 1.35.74 2.64 1.09 3.66v.04Zm3.43 9.86s-.05 0-.17-.12c.053.034.11.061.17.08v.04ZM274.49 247.98c3.131.238 6.274.282 9.41.13a.291.291 0 0 0 .27-.3.29.29 0 0 0-.29-.27c-3.13.05-6.33-.13-9.42-.3l-2.75-.15c-1.48-.07-3-.12-4.44-.18h-1.05a.27.27 0 0 0-.19-.33.3.3 0 0 0-.39.17s0 .09-.05.13c-1.09 0-2.22-.08-3.33-.14a.23.23 0 0 0-.25.23.287.287 0 0 0 .26.31l2.72.18h.39a42.418 42.418 0 0 0-1.51 6.82c-.14.84-.28 1.7-.44 2.55a22.823 22.823 0 0 1-4.41-5.53c-.32-.5-.64-1-1-1.5a.284.284 0 0 0-.152-.111.283.283 0 0 0-.188.011.238.238 0 0 0-.13.3 12.668 12.668 0 0 0 2.15 3.79l.13.18a17.192 17.192 0 0 0 3.59 3.74.4.4 0 0 0 .23.08h.13a.344.344 0 0 0 .21-.24c.2-1.05.38-2.13.55-3.16a49.875 49.875 0 0 1 1.47-6.87c2.09.14 3.85.26 5.62.34l2.86.12Z" fill="#fff"/><path d="M273.71 257.85a21 21 0 0 0-.37-1.15l.37.13a.267.267 0 0 0 .35-.16.303.303 0 0 0 .013-.229.306.306 0 0 0-.153-.171 10.7 10.7 0 0 0-.87-.38l-.07-.2-.18-.5a25.444 25.444 0 0 0-2.73-5.52.341.341 0 0 0-.164-.107.344.344 0 0 0-.196-.003.27.27 0 0 0-.21.24c0 .27-.05.54-.09.82a.17.17 0 0 0-.117.046.176.176 0 0 0-.053.114.16.16 0 0 0 .007.058.163.163 0 0 0 .076.087.142.142 0 0 0 .057.015c-.16 1.1-.42 2.21-.67 3.29-.06.28-.13.55-.19.83h-.32a.343.343 0 0 0-.31.36.339.339 0 0 0 .33.34h.15c-.16.72-.26 1.33-.34 1.91a.295.295 0 0 0 .148.296c.035.019.073.03.112.034a.335.335 0 0 0 .337-.157.334.334 0 0 0 .043-.123c.1-.656.257-1.302.47-1.93a15.18 15.18 0 0 1 3.34.62c.22.627.43 1.267.63 1.92.06.21.11.42.16.63.088.468.239.923.45 1.35a.297.297 0 0 0 .105.109c.044.026.094.04.145.041h.07a.26.26 0 0 0 .2-.24 5.202 5.202 0 0 0-.38-1.92c-.1-.15-.15-.3-.15-.45Zm-4.23-3.08c.345-.905.609-1.839.79-2.79a1.727 1.727 0 0 0 0-.6 40.352 40.352 0 0 1 1.86 4.11v.08a11.604 11.604 0 0 0-2.79-.5l.14-.3Zm.5-3.95-.06-.05.06.05Zm-.58 2.41c.12-.6.24-1.21.38-1.81a5.182 5.182 0 0 1-.42 1.81h.04ZM294.09 255.8a18.332 18.332 0 0 0 2.28 4 36.796 36.796 0 0 0 2.58 3.13.363.363 0 0 0 .43.08.397.397 0 0 0 .22-.43 19.102 19.102 0 0 1-.36-2.64c-.18-1.845.12-3.705.87-5.4a.326.326 0 0 0 .02-.257.332.332 0 0 0-.17-.193.394.394 0 0 0-.298-.03.383.383 0 0 0-.232.19 9.998 9.998 0 0 0-1 5.67c0 .46.09.94.17 1.45-.51-.58-.95-1.13-1.35-1.66a15.827 15.827 0 0 1-3.13-6.48.331.331 0 0 0-.36-.27.358.358 0 0 0-.35.33c-.07 1.2-.11 2.47-.12 3.88-.09 2.11 0 4.23.11 6.21a.347.347 0 0 0 .19.32.358.358 0 0 0 .2 0c.069.02.141.02.21 0a.34.34 0 0 0 .15-.31v-.74a68.646 68.646 0 0 1-.06-6.85ZM308.02 267.69a28.832 28.832 0 0 0-4.88-1.95l-1.4-.47a.24.24 0 0 0-.32.14.268.268 0 0 0-.018.202c.02.068.066.124.128.158.37.19.76.36 1.13.53a28.892 28.892 0 0 0-.67 3.27 12.83 12.83 0 0 0-1.48-.27 2.27 2.27 0 0 0-1.67-2.84c-.5-.162-1.011-.286-1.53-.37 0-.32 0-.64.07-1a.257.257 0 0 0-.065-.193.258.258 0 0 0-.185-.087.264.264 0 0 0-.108.01.25.25 0 0 0-.095.051.262.262 0 0 0-.097.189c0 .25-.05.5-.07.75v.12h-.22c-.29-.05-.47.46-.67 1.08-.027.062-.05.125-.07.19a.24.24 0 0 0 .09.32.227.227 0 0 0 .3-.07c.182-.254.333-.53.45-.82h.05c-.08 1.11-.14 2.24-.19 3.34v.93c-.05.87-.08 1.77-.11 2.63-.335.24-.64.519-.91.83a.24.24 0 0 0-.29.11.341.341 0 0 0 0 .4.443.443 0 0 0 .48.1c.254-.075.491-.198.7-.36-.025.382.002.765.08 1.14a.24.24 0 0 0 .23.17.22.22 0 0 0 .22-.16.752.752 0 0 0 0-.15.417.417 0 0 0 0-.05l.05-.37c0-.36.06-.73.07-1.06v-.05h.06l.17-.16a11.773 11.773 0 0 0 3.11-4 9.576 9.576 0 0 1 1.59.34c-.17 1.33-.143 2.678.08 4l-.25-.06a5.347 5.347 0 0 1-2-.75.242.242 0 0 0-.262-.052.242.242 0 0 0-.078.052.28.28 0 0 0 0 .38 5.168 5.168 0 0 0 2.65 1.13l.47.11c1.411.426 2.894.565 4.36.41a.241.241 0 0 0 .2-.27.288.288 0 0 0-.28-.28 17.857 17.857 0 0 1-4.26-.57c.05-.66 0-1.34 0-2v-1.89a8.5 8.5 0 0 1 2.54 1.59.198.198 0 0 0 .135.052c.05 0 .098-.018.135-.052a.25.25 0 0 0 0-.33 5.165 5.165 0 0 0-2.79-1.93c.112-1.084.293-2.159.54-3.22 1.31.55 2.78 1.07 4.63 1.65.064.02.133.016.194-.011a.275.275 0 0 0 .136-.139.257.257 0 0 0 .051-.214.262.262 0 0 0-.131-.176Zm-8.31 1.93a9.615 9.615 0 0 1-2.25 3.08 4.358 4.358 0 0 1-.42.36c0-.68.06-1.36.08-2v-.9c0-1.08.08-2.2.14-3.3h.28a3.001 3.001 0 0 1 2.16 1 1.686 1.686 0 0 1 .11 1.36.243.243 0 0 0-.13.11.283.283 0 0 0 .03.29ZM293.37 270.97l-1.17-.15c-.17-.91-.3-1.89-.41-3 .33-.8.62-1.46.91-2.06a.285.285 0 0 0 .03-.107.29.29 0 0 0-.071-.206.279.279 0 0 0-.089-.067.258.258 0 0 0-.097-.032.25.25 0 0 0-.102.011.25.25 0 0 0-.151.131c-.17.34-.35.7-.53 1.12-.07-.78-.12-1.56-.17-2.32v-.15a.305.305 0 0 0-.098-.206.308.308 0 0 0-.212-.084.272.272 0 0 0-.101.024.273.273 0 0 0-.084.063.257.257 0 0 0-.065.193c.06 1.23.14 2.47.24 3.67l-.86 2.13-.27.68-.76-.06a.299.299 0 0 0-.299.164.295.295 0 0 0-.031.116.304.304 0 0 0 .011.116.308.308 0 0 0 .056.102.292.292 0 0 0 .203.102l.51.05h.08a24.189 24.189 0 0 0-1.13 3.29.229.229 0 0 0 .15.28.248.248 0 0 0 .31-.13c.47-1 .88-2.08 1.34-3.32l1.1.09a7.287 7.287 0 0 0 1.26 3.68.227.227 0 0 0 .17.08.222.222 0 0 0 .13 0 .262.262 0 0 0 .12-.31 21.506 21.506 0 0 1-.95-3.36l1 .05a.248.248 0 0 0 .25-.23.27.27 0 0 0-.22-.35Zm-1.88-.22-.78-.07.13-.35.45-1.21c.05.44.1.84.15 1.22.02.15.03.26.05.41ZM276.54 257.37v-.72c.53 0 1.13-.11 1.57-.17.27 0 .49-.06.59-.06h.36a21.644 21.644 0 0 0 3.48-.4.308.308 0 0 0 .22-.21.332.332 0 0 0 0-.29 12.61 12.61 0 0 0-5-3.45c-1.74-.68-3-.44-3.45.67a.285.285 0 0 0 0 .29.292.292 0 0 0 .28.12.24.24 0 0 0 .2-.16 1.191 1.191 0 0 1 1.26-.73 26.064 26.064 0 0 0-.2 3.63c-.8.11-1 .3-1 .43a.339.339 0 0 0 .11.36.312.312 0 0 0 .4 0 .31.31 0 0 0 .09-.11c.14.04.285.06.43.06V258.31a6.49 6.49 0 0 0 .63 3.23c.026.04.061.073.103.096a.273.273 0 0 0 .137.034h.08a.232.232 0 0 0 .16-.25c0-.62-.13-1.25-.21-1.86-.08-.61-.2-1.45-.24-2.19Zm1.17-1.59h-1.22a30.11 30.11 0 0 1 .11-3.49 15.128 15.128 0 0 1 5.11 3.2 26.903 26.903 0 0 1-4 .29ZM285.44 269.68a8.373 8.373 0 0 0-1.87-4.61.369.369 0 0 0-.4-.1.3.3 0 0 0-.21.26c-.111.82-.278 1.632-.5 2.43a15.512 15.512 0 0 0-.55 2.88 24.403 24.403 0 0 1-2.57-6.2l-.22-.69.08-1a.29.29 0 0 0-.25-.3.26.26 0 0 0-.23.11.281.281 0 0 0-.422-.086.229.229 0 0 0-.068.256c.12.38.23.76.34 1.14-.13 1.32-.27 2.69-.4 4.16a.198.198 0 0 0-.094-.08.2.2 0 0 0-.276.17 30.911 30.911 0 0 0-.09 3.47c0 1 0 2-.09 3a.311.311 0 0 0 .076.216.314.314 0 0 0 .204.104.3.3 0 0 0 .31-.28l.16-1.86c.22-2.41.44-4.9.64-7.36a18.366 18.366 0 0 0 3 6.58.349.349 0 0 0 .57-.041.33.33 0 0 0 .04-.209 10.554 10.554 0 0 1 .52-3.84c.13-.54.28-1.09.38-1.64a10.233 10.233 0 0 1 1.33 3.94v.12c0 .17.07.35.1.54a5.217 5.217 0 0 0 1.09 2.87.27.27 0 0 0 .37 0 .313.313 0 0 0 .08-.4 11.226 11.226 0 0 1-1.05-3.55ZM289.8 263.24a.308.308 0 0 0 .29.19h.11a.291.291 0 0 0 .2-.34 22.09 22.09 0 0 0-1-3.3.294.294 0 0 0 .177-.047.286.286 0 0 0 .113-.143.279.279 0 0 0-.15-.36l-.41-.17c-.22-.55-.46-1.1-.73-1.7a8.242 8.242 0 0 0-1.39-2.19c.19-.32.37-.64.57-.95a.26.26 0 0 0-.1-.35.23.23 0 0 0-.088-.045.232.232 0 0 0-.191.027.242.242 0 0 0-.071.068c-.18.24-.36.51-.55.81a3.88 3.88 0 0 0-1.48-.79.224.224 0 0 0-.175.019.223.223 0 0 0-.105.141.271.271 0 0 0 .15.34c.478.18.916.452 1.29.8-.58 1-1.11 2-1.51 2.77l-.44-.1h-.13l-.42-.1h-.14a.276.276 0 0 0-.114-.092.28.28 0 0 0-.146-.018.352.352 0 0 0-.3.13.288.288 0 0 0 0 .36c.362.322.817.522 1.3.57a6.186 6.186 0 0 0-1 2.91.21.21 0 0 0 .16.2.23.23 0 0 0 .142 0 .236.236 0 0 0 .118-.08 9.878 9.878 0 0 0 1.07-2.19l.29-.72.58.1 1.2.25c.53.1 1.06.21 1.58.34.09.28.17.56.25.83.269.971.62 1.918 1.05 2.83Zm-1.5-4.47c-.47-.12-.95-.22-1.41-.32l-.7-.15-.73-.16c.44-.87.86-1.68 1.29-2.45a9.417 9.417 0 0 1 1.55 3.08ZM141.6 228.16l5 4.16h.11c4.66-.54 9.5-1 14.78-1.37h.08l14.56-11.63.1-.08v-8.37h-.26c-11.46.38-22.94 1.27-34.11 2.66h-.22l-.04 14.63ZM233.08 203.49l.09-.08v-26.92L198.71 204l-.1.08v27.51l1.95-1.57c7.43-6 14.68-11.95 21.44-17.48 3.873-3.173 7.567-6.19 11.08-9.05ZM219.38 99.69v-.12h-.34l.34.12ZM141.59 230.96v15.9l9.7-7.75-9.7-8.15ZM148.49 274.89l-.24.19 27.94 22.91v-38l-4.54-3.81-.56.45-22.6 18.26ZM123.65 294.91l-.23.19 16 13.43v-26.35l-.41.33-15.36 12.4ZM198.58 378.86h.26c6.87-.18 13.2-.51 19.37-1h.61l-20.24-16.95v17.95ZM282.71 388.1l-18.34-15-.1-.08h-.12a320.023 320.023 0 0 1-43.07 6.76c-6.88.61-14.16 1-22.24 1.23h-.25v10.78c0 2.8.12 5.51.36 8.05v.4h.23c5.6-.14 10.1-.32 14.16-.58 8.39-.54 16.93-1.39 25.38-2.52.3-.05.61-.08.92-.12l1.26-.17c4.22-.59 8.64-1.32 13.91-2.3 9.57-1.76 18.78-3.89 27.39-6.31l.51-.14ZM233.17 307.86l-34.59-29.05v37.54l34.59 28.37v-36.86ZM247.06 398.07l-.54.09.42.35c4 3.39 6.39 5.33 7.71 6.43l.41.34v-8.6l-.3.06c-2.61.48-5.13.92-7.7 1.33ZM329.82 242.07v22.42l.11.08a100.967 100.967 0 0 1 14.38 11.24l.07.07h32.73l.05-.19c.06-.23.06-.23-1.56-1.15a123.337 123.337 0 0 1-18.35-12.35 162.846 162.846 0 0 0-27.06-19.85l-.37-.27Z" fill="#fff"/><path d="m310.23 172.41.05 60.39v60.87h17.43V172.41c0-11.39 1.58-19.45 4.7-24 3.12-4.55 6.32-7.12 9.53-7.81l2.31-.49h-53.96l1.82.49c12.02 3.27 18.12 13.96 18.12 31.81ZM82.01 223.88v137.61l.16.06.43.17.49.19c6.33 2.34 13.12 4.51 20.17 6.43l.32.08V308.3l.1-.08 72.51 60.49V342.1l-.09-.07-36.74-30.77-19.15-16v-.29c5.45-4.38 12-9.62 19.15-15.42l7.36-5.93 23-18.6 6.45-5.22v-27.83l-72.61 58v-38.66l-21.55-17.43ZM235.6 235.24h-.28v140.75h.28c6.77-.91 13.25-2 19.26-3.16h.2V238.49h-.2c-6.25-1.26-12.73-2.35-19.26-3.25ZM47.48 369.07v-22.58l-.1-.08a88.808 88.808 0 0 1-16.53-14.12c-7.72-8.7-11.64-17.72-11.64-26.81s3.92-18.1 11.64-26.8a92.237 92.237 0 0 1 19.17-15.89 148.429 148.429 0 0 1 16.15-8.93l.37-.17.34-.15c3.83-1.81 8-3.58 12.82-5.43l.16-.07V227.6l-.33.12c-4.82 1.69-9 3.29-12.86 4.89-3 1.26-5.92 2.57-8.74 3.92-2.82 1.35-5.39 2.65-8.17 4.14C17.71 257.99 0 281.03 0 305.49c0 11.92 4.09 23.45 12.16 34.25s19.78 20.54 35 29.09l.32.24ZM234.22 420.4a47.863 47.863 0 0 1-51.734 38.128A47.858 47.858 0 0 1 139.45 410.8v-11.38l-.56-.07c-6.18-.86-12.53-1.86-18.88-3.05l-.3-.06v14.56a67.628 67.628 0 0 0 55.835 66.634 67.627 67.627 0 0 0 75.325-43.404l.06-.17-16.62-13.87-.09.41ZM108.46 430.2c-3.24-4.62-4.88-12.86-4.88-24.49v-13l-.87-.22c-7-1.75-13.89-3.75-20.41-5.93l-.33-.11v19.22c0 1.51-.1 4.34-.1 4.36l-.06 1.51c-.5 8.75-2.21 15.07-5.07 18.79-3.44 4.47-9.35 7.46-9.41 7.49l-.95.47h52l-.91-.47c-.01.01-5.76-3.03-9.01-7.62Z" fill="#fff"/><path d="M120.44 372.43c6.08 1.24 12.38 2.32 18.73 3.21h.28v-34.78l-19.74-16.47v47.88l.73.16ZM254.96 407.98c-.45-.36-4.21-3.49-11.17-9.31l-.09-.07h-.27l-2.19.32c-.44.07-2.2.29-2.2.29-7.43 1-15.09 1.79-22.77 2.34h-.62l35.77 29.94 8.23 6.86h53.56l-1.8-.49c-11.42-3.13-37.26-14.77-56.45-29.88ZM311.91 295.9c-7.67-.26-13.68-1.39-17.87-3.33-4.85-2.25-8.14-4.76-9.79-7.44a25.527 25.527 0 0 1-1.78-3.27l-.48-1.23v50.36l.48-1.23a25.474 25.474 0 0 1 1.78-3.26c1.64-2.68 4.94-5.19 9.79-7.44a47.85 47.85 0 0 1 16.51-3.76 65 65 0 0 1 3.39-.15h42.7a47.085 47.085 0 0 1-10.17 17.18 88.928 88.928 0 0 1-16.54 14.16l-.11.08v22.54l.37-.21c15.18-8.55 26.95-18.34 35-29.09s12.13-22.32 12.13-34.32v-9.62l-65.41.03Z" fill="#fff"/><path d="M310.71 317.49h-.42v55.14l-53.08-44.57v36.38l70.5 57.76V317.29h-13.78c-1.07.03-2.16.08-3.22.2Z" fill="#fff"/><path d="M307.78 358.66c-2.18 1-4.45 2-6.75 2.9l-.38.15 7.49 6.29v-9.51l-.36.17ZM79.76 410.82c-.05-.05-5.06-4.74-7.78-7.9-3.52-4.09-5-10.93-5-23.59V255.88l-.36.17a145.331 145.331 0 0 0-15.48 8.59l-1 .63-.59.39v113.32c0 11.38-1.7 19.44-5 23.95a36.425 36.425 0 0 1-8.84 7.86l-.78.46h45.32l-.49-.43ZM308.14 252.72v-21.15l-.16-.06c-6.24-2.52-12.65-4.78-19.6-6.92a320.448 320.448 0 0 0-62.82-12.1h-.1l-2.13 1.74c-6.07 5-12.52 10.22-19.15 15.61l-.51.41h.66c38.22 1.71 75 9.63 103.46 22.32l.35.15ZM41.59 180.01a33.45 33.45 0 0 1 8 21.66v36.65l.37-.19c2.55-1.36 4.84-2.51 7-3.54 2.86-1.36 5.83-2.69 8.84-4l.61-.25.57-.24V209l45.33 36.64 5.22 4.28v-39.14l-4.9-4.12-47.5-39.32-.07-.06H21.38v.5a34.347 34.347 0 0 1 20.21 12.23ZM300.09 154.21v-.5h-38.42l-.07.06-4.27 3.41-.1.08v26.13l.42-.36c3.12-2.67 5.09-4.42 6-5.36 10.93-10.87 32.55-22.97 36.44-23.46Z" fill="#fff"/><path d="M69.17 358.49v20.95l.15.06a231.4 231.4 0 0 0 12.86 4.8c6.69 2.26 13.78 4.33 21.09 6.16 5.24 1.31 10.84 2.54 16.65 3.65 6.37 1.22 12.84 2.27 19.25 3.12 11.66 1.55 23.9 2.54 36.38 3l.25-.05v-.32c.24-2.53.36-5.23.36-8v-10.92h-.24a354.673 354.673 0 0 1-36.71-3.11c-6.43-.9-12.89-2-19.23-3.3-5.81-1.19-11.4-2.5-16.62-3.9-7.31-2-14.39-4.21-21-6.68-4.11-1.52-8.31-3.26-12.83-5.31l-.36-.15Z" fill="#fff"/><path d="M210.92 424.28a25.143 25.143 0 0 1-3.35-1.74c-2.76-1.61-5.33-4.83-7.64-9.57a38.353 38.353 0 0 1-3.12-12.93c-.25-2.61-.37-5.38-.37-8.25V186.66c0-9.3 1.17-16.43 3.49-21.18 2.32-4.75 4.88-8 7.64-9.57a25.747 25.747 0 0 1 3.36-1.74l1.29-.49h-49.67l1.29.49a25.747 25.747 0 0 1 3.36 1.74c2.76 1.61 5.33 4.83 7.64 9.57 2.31 4.74 3.49 11.88 3.49 21.18v205.13c0 2.86-.12 5.62-.36 8.23a38.163 38.163 0 0 1-3.13 13c-2.31 4.74-4.88 8-7.64 9.57a25.143 25.143 0 0 1-3.35 1.74l-1.3.49h49.67l-1.3-.54ZM77.13 148.68c3.24 4.39 4.88 12.63 4.88 24.48v5.33l21.57 17.85v-23.18c0-12.09 1.64-20.51 4.88-25 3.24-4.49 9-7.46 9.06-7.49l.92-.47H66.51l.85.47c.06.02 6.55 3.65 9.77 8.01Z" fill="#fff"/><path d="M108.1 101.83c2.75 1.65 5.33 4.94 7.64 9.79 2.3 4.82 3.67 11.22 4 18.49v134.22l19.65-15.69.09-.07V140.49l-1 .2c-1.499.359-3.03.567-4.57.62h-.07a5.277 5.277 0 0 1-5.25-3.74 4.228 4.228 0 0 1 2.15-4.85 8.996 8.996 0 0 1 4.49-1.07c1.1.02 2.197.127 3.28.32l.62.1h.35c.1-8.92 1.27-15.8 3.49-20.45.15-.31.3-.6.45-.9-.69-3.27-1.84-8.8-2-10.38 0-.22-.07-.49-.11-.77h-37.83l1.26.48a26.118 26.118 0 0 1 3.36 1.78ZM240.21 102.7a24.845 24.845 0 0 1-1.78 5.52 8.879 8.879 0 0 0-.51 1.45 12.499 12.499 0 0 1-.67 1.86 11.327 11.327 0 0 1-1 1.62 11.534 11.534 0 0 0-.93 1.57c-.22.49-.86 2.05-1.61 3.87a59.018 59.018 0 0 1 1.58 12.25v4.83c.332.043.666.067 1 .07H237.63a4.779 4.779 0 0 1 4 2.67 4.341 4.341 0 0 1-.32 3.63 2.851 2.851 0 0 1-2.2 1.37h-.31c-.65.06-2 .17-3.51.27v67.71h.22c6.44.8 12.91 1.78 19.22 2.92h.3v-83.63c.2-8.25 1.36-14.66 3.46-19.06 2.31-4.84 4.88-8.14 7.64-9.79a26.118 26.118 0 0 1 3.36-1.78l1.26-.48h-29.8c-.31 1.13-.62 2.42-.74 3.13Z" fill="#fff"/><path d="M252.81 65.05c-.16-1.74-2.78-3.74-5.29-3.81h-.09c-2.48 0-4.94 3-5.08 4.47-.14 1.47 1.85 2 1.85 2a9.66 9.66 0 0 1-.35 1.75c-.24.69-2.78 6.09-4.1 8.37-1.32 2.28-2.93 5.36-3.68 6.48a36.655 36.655 0 0 0-1.95 3.49 22.82 22.82 0 0 1-2.61 3.54c-.74.83-2 2.63-2.53 3.22a30.205 30.205 0 0 1-2.79 2.85c-1.19 1-2.76 3.1-4 4.52-1.24 1.42-1 1.37-2.2 2.69l-1.77 1.87s.51-1.64.66-2.51c.15-.87.4-3.9.8-6.42s1.46-10.1 1.82-13.82c.36-3.72 1.63-10 2.47-14.69a116.152 116.152 0 0 0 1.77-12c.07-2.26.85-7.9.85-9.39a16.112 16.112 0 0 0-.19-2.29c0-.83-.68-4.55-.5-4.66a27.628 27.628 0 0 0 2.79-2c1.12-1-.13-3.38-1.23-4.61-.91-1-1.75-1.26-3.64-1.26h-1.2a3.87 3.87 0 0 0-3.85 2.51c-.29.69-1.53 4.44-.59 5.31.71.66 2.45.74 3.27.74h.45v1c0 .64-.54 3.32-.51 4.41a4.64 4.64 0 0 1-1 2.73c-.49.67-1.29 2.17-1.9 3.25-.61 1.08-1.48 2.77-1.81 3.35a34.498 34.498 0 0 0-1.55 3.68 35.855 35.855 0 0 1-2.14 4.16 40.339 40.339 0 0 0-1.82 4.84c-.279.93-.641 1.834-1.08 2.7a50.684 50.684 0 0 0-1.8 4.91 45.244 45.244 0 0 1-3.31 7 40.542 40.542 0 0 0-2.6 6.82c-.62 1.89-1.69 4.81-2.16 5.93-.47 1.12-1.32 3.51-1.83 5.23-.51 1.72-1.89 5.64-2.29 6.7a2.898 2.898 0 0 1-2 1.75.461.461 0 0 1-.21-.041.458.458 0 0 1-.17-.129c-.49-.61-.69-4.2-.76-5.69-.07-1.49 0-4 0-5.43 0-1.43.29-3.09.29-4.54a33.308 33.308 0 0 0-.29-4.92 22.657 22.657 0 0 1-.14-4 34.431 34.431 0 0 0-.66-5.77 22.167 22.167 0 0 1-.65-4.27c0-1.2.1-3 0-4.91a28.195 28.195 0 0 0-.89-5.06 45.774 45.774 0 0 1-1-7c-.11-2.07.18-6-.25-9.82-.43-3.82-1.86-10.26-2.44-13.39a76.707 76.707 0 0 0-1.6-7.68 50.494 50.494 0 0 1-1.33-8 24.672 24.672 0 0 0-1.51-6.16 5.586 5.586 0 0 1-.69-2.84c.15-.14 2.42-2.27 3.5-3.23s.57-2.35.31-3.1c-.26-.75-.65-.91-1-2C184.26.79 182.2.08 181 0h-.44c-1.354.035-2.698.24-4 .61a5.504 5.504 0 0 0-3.54 2.93c-.94 1.78.15 3.71.91 4.8.76 1.09 4.73 1.64 4.73 1.64s-.16.83-.19 1.2a11.69 11.69 0 0 1-.28 2.29c-.19.51-.59 3-.82 3.82a45.02 45.02 0 0 0-1 6.48c0 1.46.07 3.06 0 4.29s-.72 4.48-.83 6.59c-.11 2.11-1.09 6.11-1.25 7.25-.16 1.14-.54 4.43-.68 5.27a26.223 26.223 0 0 1-.47 2.77c-.33 1.31-.57 3.8-.75 5.21a34.015 34.015 0 0 0-.31 4.29c0 1.46-.17 4-.23 4.71s-.24 4.15-.33 6.08a41.452 41.452 0 0 0-.45 7.29c0 5.42-.49 12.52-.59 14.23-.1 1.71-.24 7.56-.35 8.76a45.12 45.12 0 0 1-.53 5.86c-.48 1.88-.38 3-.81 4.21a12.948 12.948 0 0 0-.64 2.36s-3.26-6.71-3.75-7.8a61.103 61.103 0 0 1-2.18-6.48c-.15-.87-1-2.35-2-4.83s-1-3.6-1.44-4.81c-.23-.66-.89-2.31-1.45-4a24.729 24.729 0 0 0-2.21-4.17c-.43-.76-1-2.47-1.62-3.64-.52-1-1.33-2.35-2.18-3.81-.85-1.46-1.15-2.23-2.14-4.08a69.276 69.276 0 0 0-4.08-7.1c-1.92-2.8-7.61-12.13-8.93-13.58a14.509 14.509 0 0 1-2.26-3l-.22-.62s2.86-1.12 2.79-2.39a5.887 5.887 0 0 0-2.29-3.89 9.36 9.36 0 0 0-3.19-.39 11.893 11.893 0 0 0-2.64.23c-1.24.33-2.38.35-2.76 1.61-.38 1.26.09 5.24 1.79 5.73.526.156 1.071.24 1.62.25.302.014.604-.03.89-.13a38.137 38.137 0 0 1 2.28 6.42c.69 3 2.78 8.09 3.22 9.61.44 1.52 1.45 5.25 1.94 7.23.49 1.98 1.6 5.3 2 7.2 0 0 .7 4.11 1 5.23.3 1.12 1 5.73 1.4 8.22.4 2.49.3 3.37.63 4.77a46.409 46.409 0 0 1 1.07 5.3c.15 1.45 1.31 7.08 2 10.28a99.143 99.143 0 0 1 1.55 11.46c.1 2.18 1 8.24 1.22 9.65.22 1.41.36 2.18.36 2.18s-5.71.45-8.54.45a9.518 9.518 0 0 1-1.24-.06 24.182 24.182 0 0 0-3.6-.4 7.004 7.004 0 0 0-3.48.91c-2.42 1.35-1.08 4.7 2.08 4.7 3 0 5.33-1.08 7.93-1.08h7.84c.021.851.121 1.698.3 2.53.196.851.463 1.684.8 2.49.58 1.56.45 3.27 2.09 3.27h.27c1.93-.19 1.83-1.39 1.72-3.68a44.886 44.886 0 0 0-.67-5.14s11.44-1.16 19.33-1.16h.69c7.9.07 7.1.07 9.39.07 2.29 0 5.24-.4 7.13-.4 1.89 0 4.13.3 5.77.36 1.64.06 4.79.26 7.48.33 2.69.07 4.57.74 5.63.76 1.06.02 2.37 0 3.69.12 1.32.12 2.14.25 2.94.29.846.1 1.685.257 2.51.47.111.404.162.822.15 1.24 0 .58-1.24 2.34-1.38 3.57a32.579 32.579 0 0 0-.43 3.22c-.017.16 0 .323.05.476a1.162 1.162 0 0 0 1.09.804c.099.015.201.015.3 0 .7-.17 2.33-4.14 2.7-4.9.37-.76 1.07-2.68 2.21-2.68a.885.885 0 0 1 .23 0c1.27.29 3.92 1.4 6.35 1.59h1.26c2.75 0 7-.4 7.74-.46.74-.06 1-1.53.77-2.19a2.778 2.778 0 0 0-.895-.922 2.778 2.778 0 0 0-1.215-.418h-1.34a11.756 11.756 0 0 1-1.59-.12c-1.52-.22-3.59-1-4.5-1.09-.91-.09-5.34-1.05-5.34-1.05h-.09c.18-.78.57-2.41.92-3.38.47-1.31 2-4.13 2.91-6.37.91-2.24 4.26-10.59 4.88-11.93.62-1.34 1.42-2.19 1.91-3.22.49-1.03.62-2.16 1.18-3.32a22.682 22.682 0 0 0 1.6-5c.365-1.879.859-3.73 1.48-5.54a33.925 33.925 0 0 0 1.84-6.29c.36-2.33 1.07-5.15 1.07-6.06 0-.91.88-2.54 1.15-3.51.27-.97.67-2.44.9-3.05.37-1 .37-.77 1.28-2.77a16.115 16.115 0 0 0 1.45-5c.083-.816.254-1.62.51-2.4 0 0 1.68-.5 2.26-.62.58-.12 2.93-.23 2.77-1.98Zm-16.61 29.7c-.4 2.19-1.41 5.06-1.64 6.15-.23 1.09-1.38 5.21-2.47 8.3a16.983 16.983 0 0 1-2.77 5 33.771 33.771 0 0 1-2 3.81 19.743 19.743 0 0 0-2.88 5.5c-.69 2.14-1.89 4.25-2.27 5.38a44.399 44.399 0 0 0-1.18 4.77 3.254 3.254 0 0 1-.67 1.46c-1.91-.2-4-.41-5.45-.54-3.24-.3-6.69-1.54-9.75-1.69-3.06-.15-8.26-.4-10.26-.58-2-.18-8.45-.69-9.72-.8-1.27-.11-8 .37-9.9.26-1.9-.11-4.73-.11-8.84 0-4.11.11-12.59 1.38-12.59 1.38s-.69-4.69-1.31-6.91c-.62-2.22-2.29-7.39-2.33-8.84-.04-1.45-2-12-2.11-13.87-.11-1.87-.73-12.66-1.28-15.07s-4.33-14.44-4.84-16.95c-.51-2.51-1.52-6.76-2-8.44.238.37.452.753.64 1.15.15.46 1.87 2.69 2.72 4.44.85 1.75 5.12 8 5.65 9.75a28.386 28.386 0 0 0 1.85 4.83c.92 1.87 3.41 7.93 5.16 11.93s5.39 12.11 6.87 16.52c1.48 4.41 2.38 7.5 3.18 9.73.8 2.23 1.41 3.33 2.79 3.32 1.38-.01 1.94-2.86 2-3.15.06-.29 1.26-4.66 1.43-6.26.17-1.6 1.18-7.47 1.24-9.07.06-1.6.44-4.25.53-6.09.09-1.84.68-5.43.73-6.19.05-.76 0-3.64.05-6s.75-7.49.78-8.12c.03-.63.53-4.4 1-8.57s1.62-12.69 1.72-15.11c.1-2.42 1.06-12.45 1.09-14 .03-1.55.41-5.67.49-7.9.306-2.735.774-5.45 1.4-8.13a66.235 66.235 0 0 1 1.9 7.47c.14 1.77.72 4.37 1 5.94a44.826 44.826 0 0 1 0 6c0 1.36.46 5.17.49 7.23.03 2.06 0 5.63.26 9.63.26 4 1.51 8.3 1.51 9.41 0 1.11.86 6.57.93 7.88.112 1.678.325 3.348.64 5 .231 1.21.342 2.439.33 3.67.05 1.38.35 4.25.35 4.25.16 1.298.25 2.603.27 3.91 0 1.8-.07 3.1-.05 4.39.02 1.29.44 8.13 1 11.5.56 3.37.63 4.63 1 6.77.37 2.14 1.16 3.13 2.23 3.05 1.07-.08 2.16-2.25 2.47-2.74.31-.49 2.26-2.67 3-3.47.74-.8 1.54-2.83 2.1-3.6a20.356 20.356 0 0 0 1.43-4.06 34.93 34.93 0 0 1 1.57-3.64c.56-1.1 2.74-6.41 3.26-8 .52-1.59.91-2.86 1.16-3.63.25-.77 1.24-3.35 2.73-8.05 1.49-4.7 4.52-13.61 5.43-16.34.91-2.73 4.34-10.29 4.34-10.29s-.87 5.61-.85 6.4c.02.79-.45 3.23-.56 4.43-.11 1.2-.4 2.77-.51 4.22-.11 1.45 0 2.8 0 4.66 0 1.86-.68 4.52-.91 6.88-.17 1.88-.81 5.62-.84 6.57-.03.95-.71 6.43-.86 7.7-.15 1.27-1.2 4.41-1.33 5.24a54.32 54.32 0 0 1-1.28 6.63c-.54 1.54-1.25 2.8-1.36 3.27-.11.47.19.66.77 1.75a2.385 2.385 0 0 0 2.26 1.31c.69 0 1.32-1.45 2.14-2.33a30.486 30.486 0 0 0 4.33-4.66c1.39-2.11 3.86-5.13 6.05-7.9 2.19-2.77 3.27-5.31 4.62-6.84 1.35-1.53 5.35-6.29 5.35-6.29a55.673 55.673 0 0 0-1.43 5.28Z" fill="#fff"/></svg>
